<svg width="240" height="16" viewBox="0 0 240 16" fill="none" xmlns="http://www.w3.org/2000/svg">
<g clip-path="url(#clip0_85_13)">
<path d="M229.359 0.361984H232.577V12.2512H239.331V15.2767H229.359V0.361984Z" fill="url(#paint0_linear_85_13)"/>
<path d="M221.43 0.361984H224.647V15.2767H221.43V0.361984Z" fill="url(#paint1_linear_85_13)"/>
<path d="M208.575 0.361984H212.261L217.992 15.2767H214.498L213.369 12.0168H207.467L206.316 15.2767H202.844L208.575 0.361984ZM212.368 9.1404L210.407 3.66454L208.468 9.1404H212.368Z" fill="url(#paint2_linear_85_13)"/>
<path d="M182.445 0.361984H187.026L190.776 11.4628L194.526 0.361984H199.086V15.2767H196.039V4.5168L192.502 15.2767H189.051L185.513 4.5168V15.2767H182.445V0.361984Z" fill="url(#paint3_linear_85_13)"/>
<path d="M153.516 0.361984H157.244L163.168 10.2057V0.361984H166.406V15.2767H162.699L156.733 5.30518V15.2767H153.516V0.361984Z" fill="white"/>
<path d="M140.349 0.361984H144.035L149.766 15.2767H146.272L145.143 12.0168H139.241L138.09 15.2767H134.617L140.349 0.361984ZM144.141 9.1404L142.181 3.66455L140.242 9.1404H144.141Z" fill="white"/>
<path d="M114.461 0.361984H119.042L122.792 11.4629L126.542 0.361984H131.101V15.2767H128.054V4.51682L124.518 15.2767H121.066L117.529 4.51682V15.2767H114.461V0.361984Z" fill="white"/>
<path d="M103.346 15.6603C101.385 15.6603 99.8444 15.1418 98.7217 14.1049C97.5997 13.0537 97.0391 11.5409 97.0391 9.56654V0.361984H100.278V9.60914C100.278 10.6745 100.54 11.4557 101.066 11.9529C101.592 12.4501 102.352 12.6987 103.346 12.6987C104.326 12.6987 105.078 12.4501 105.604 11.9529C106.144 11.4557 106.414 10.6745 106.414 9.60914V0.361984H109.631V9.56654C109.631 11.5409 109.07 13.0537 107.948 14.1049C106.826 15.1418 105.292 15.6603 103.346 15.6603Z" fill="white"/>
<path d="M79.8359 0.361984H83.0533V6.24268H88.9979V0.361984H92.2366V15.2767H88.9979V9.26827H83.0533V15.2767H79.8359V0.361984Z" fill="white"/>
<path d="M63.3359 0.361984H70.4527C71.4894 0.361984 72.3701 0.575055 73.0947 1.00119C73.8334 1.41312 74.3874 1.9742 74.7561 2.68444C75.1254 3.38044 75.3101 4.12618 75.3101 4.92165C75.3101 5.90176 75.0614 6.77534 74.5647 7.5424C74.0674 8.2952 73.3434 8.84214 72.3914 9.183L76.1841 15.2767H72.4127L69.3234 9.95007H66.5533V15.2767H63.3359V0.361984ZM69.8774 7.20147C70.5874 7.20147 71.1274 7.0168 71.4967 6.6475C71.8654 6.27817 72.0507 5.80233 72.0507 5.21995C72.0507 4.66597 71.8727 4.22562 71.5181 3.89892C71.1627 3.55802 70.6374 3.38756 69.9407 3.38756H66.5533V7.20147H69.8774Z" fill="white"/>
<path d="M48.7109 0.361984H58.8956V3.38756H51.9283V6.22137H58.1499V9.24694H51.9283V12.2512H59.2791V15.2767H48.7109V0.361984Z" fill="white"/>
<path d="M32.6953 0.361984H39.7692C40.8202 0.361984 41.708 0.589258 42.4325 1.0438C43.1569 1.49835 43.7036 2.09494 44.0731 2.83358C44.4566 3.5722 44.6484 4.37477 44.6484 5.24126C44.6484 6.17876 44.4424 7.03814 44.0305 7.8194C43.6327 8.5864 43.0504 9.20434 42.2834 9.67307C41.5163 10.1276 40.5858 10.3549 39.4922 10.3549H35.9126V15.2767H32.6953V0.361984ZM39.1938 7.39327C39.904 7.39327 40.4437 7.2086 40.8132 6.83927C41.1824 6.45574 41.3672 5.95148 41.3672 5.32648C41.3672 4.71568 41.1894 4.23984 40.8345 3.89892C40.4793 3.55802 39.9536 3.38756 39.2578 3.38756H35.9126V7.39327H39.1938Z" fill="white"/>
<path d="M22.0646 15.6603C20.1044 15.6603 18.5632 15.1418 17.4411 14.1049C16.3189 13.0537 15.7578 11.5409 15.7578 9.56654V0.361984H18.9965V9.60914C18.9965 10.6745 19.2593 11.4557 19.7848 11.9529C20.3104 12.4501 21.0703 12.6987 22.0646 12.6987C23.0447 12.6987 23.7976 12.4501 24.3231 11.9529C24.8631 11.4557 25.1327 10.6745 25.1327 9.60914V0.361984H28.3501V9.56654C28.3501 11.5409 27.7891 13.0537 26.6669 14.1049C25.5449 15.1418 24.0107 15.6603 22.0646 15.6603Z" fill="white"/>
<path d="M6.47727 15.6605C5.35511 15.6605 4.30398 15.4475 3.32387 15.0213C2.35797 14.5952 1.5696 13.9631 0.958807 13.125C0.362215 12.2869 0.0426136 11.2784 0 10.0995H3.28125C3.36648 10.7245 3.55115 11.2429 3.83523 11.6549C4.11931 12.0525 4.48153 12.3509 4.92187 12.5497C5.37641 12.7344 5.9162 12.8267 6.54119 12.8267C7.35087 12.8267 7.96167 12.6847 8.3736 12.4006C8.78553 12.1165 8.99147 11.7117 8.99147 11.1861C8.99147 10.8736 8.91333 10.6179 8.75713 10.4191C8.60087 10.206 8.38067 10.0355 8.0966 9.90767C7.82667 9.7656 7.49293 9.64487 7.0952 9.54547L5.04972 9.07673C3.99859 8.8352 3.1321 8.53693 2.45029 8.1818C1.78267 7.81247 1.27841 7.34373 0.9375 6.7756C0.59659 6.20739 0.426135 5.51136 0.426135 4.68751C0.426135 3.65057 0.674713 2.78409 1.17187 2.08807C1.66903 1.37784 2.34375 0.852273 3.19603 0.511363C4.06251 0.170454 5.03551 0 6.11506 0C7.2088 0 8.196 0.184659 9.07673 0.553977C9.9716 0.923293 10.6818 1.47727 11.2074 2.21592C11.7329 2.95454 12.0171 3.84233 12.0597 4.87925H8.79973C8.68607 4.15481 8.39487 3.63636 7.92613 3.32385C7.4574 2.99715 6.82527 2.83379 6.02983 2.83379C5.23439 2.83379 4.64489 2.97585 4.26137 3.25995C3.89205 3.54404 3.70739 3.94887 3.70739 4.47444C3.70739 4.82954 3.79971 5.12783 3.98437 5.36933C4.16904 5.59659 4.41051 5.78125 4.70881 5.92331C5.02131 6.05115 5.42615 6.17187 5.92329 6.28552L7.96873 6.75427C8.94887 6.98153 9.7514 7.26567 10.3764 7.60653C11.0014 7.93327 11.4701 8.3594 11.7827 8.88493C12.1094 9.41053 12.2727 10.0568 12.2727 10.8239C12.2727 11.8466 12.0099 12.7202 11.4844 13.4446C10.973 14.1691 10.277 14.723 9.39633 15.1065C8.51567 15.4759 7.5426 15.6605 6.47727 15.6605Z" fill="white"/>
</g>
<defs>
<linearGradient id="paint0_linear_85_13" x1="182.443" y1="-1.96845" x2="189.913" y2="26.5241" gradientUnits="userSpaceOnUse">
<stop stop-color="#D9BFFE"/>
<stop offset="1" stop-color="#9E6EE5"/>
</linearGradient>
<linearGradient id="paint1_linear_85_13" x1="182.447" y1="-1.96845" x2="189.917" y2="26.5241" gradientUnits="userSpaceOnUse">
<stop stop-color="#D9BFFE"/>
<stop offset="1" stop-color="#9E6EE5"/>
</linearGradient>
<linearGradient id="paint2_linear_85_13" x1="182.442" y1="-1.96845" x2="189.912" y2="26.5241" gradientUnits="userSpaceOnUse">
<stop stop-color="#D9BFFE"/>
<stop offset="1" stop-color="#9E6EE5"/>
</linearGradient>
<linearGradient id="paint3_linear_85_13" x1="182.445" y1="-1.96845" x2="189.915" y2="26.5241" gradientUnits="userSpaceOnUse">
<stop stop-color="#D9BFFE"/>
<stop offset="1" stop-color="#9E6EE5"/>
</linearGradient>
<clipPath id="clip0_85_13">
<rect width="239.333" height="16" fill="white"/>
</clipPath>
</defs>
</svg>
