<svg width="16" height="16" viewBox="0 0 16 16" fill="none" xmlns="http://www.w3.org/2000/svg">
<path d="M15.3333 8.65283H0.666667C0.298665 8.65283 0 8.35416 0 7.98616C0 7.61816 0.298665 7.3195 0.666667 7.3195H15.3333C15.7013 7.3195 16 7.61816 16 7.98616C16 8.35416 15.7013 8.65283 15.3333 8.65283Z" fill="white"/>
<path d="M15.3333 3.54166H0.666667C0.298665 3.54166 0 3.243 0 2.87499C0 2.50699 0.298665 2.20833 0.666667 2.20833H15.3333C15.7013 2.20833 16 2.50699 16 2.87499C16 3.243 15.7013 3.54166 15.3333 3.54166Z" fill="white"/>
<path d="M15.3333 13.7638H0.666667C0.298665 13.7638 0 13.4652 0 13.0972C0 12.7292 0.298665 12.4305 0.666667 12.4305H15.3333C15.7013 12.4305 16 12.7292 16 13.0972C16 13.4652 15.7013 13.7638 15.3333 13.7638Z" fill="white"/>
</svg>
